<?xml version="1.0" encoding="UTF-8"?>
<!-- Generated by Pixelmator Pro 4.0 -->
<svg width="104" height="158" viewBox="0 0 104 158" xmlns="http://www.w3.org/2000/svg">
    <g id="Group">
        <path id="Path" fill="#ffffff" fill-opacity="0.85" stroke="none" d="M 20.8496 17.423492 L 20.8496 24.552399 C 20.8496 31.827797 25.830099 37.052399 33.105499 37.052399 L 71.7285 37.052399 C 79.003899 37.052399 83.984398 31.827797 83.984398 24.552399 L 83.984398 17.423492 C 83.984398 17.179306 83.984398 16.837494 83.984398 16.593399 L 86.523399 16.593399 C 98.535202 16.593399 104.834 22.989899 104.834 35.636398 L 104.834 132.217987 C 104.834 144.86499 98.535202 151.212997 86.035202 151.212997 L 18.7988 151.212997 C 6.29883 151.212997 0 144.86499 0 132.217987 L 0 35.636398 C 0 22.989899 6.29883 16.593399 18.310499 16.593399 L 20.8496 16.593399 C 20.8496 16.837494 20.8496 17.179306 20.8496 17.423492 Z M 23.4375 121.085999 C 21.435499 121.085999 19.872999 122.648003 19.872999 124.552002 C 19.872999 126.504997 21.4844 128.117004 23.4375 128.117004 L 56.542999 128.117004 C 58.496101 128.117004 60.107399 126.504997 60.107399 124.552002 C 60.107399 122.648003 58.544899 121.085999 56.542999 121.085999 Z M 23.4375 96.671501 C 21.435499 96.671501 19.872999 98.234001 19.872999 100.138 C 19.872999 102.139999 21.435499 103.703003 23.4375 103.703003 L 81.3965 103.703003 C 83.398399 103.703003 84.960899 102.139999 84.960899 100.138 C 84.960899 98.234001 83.398399 96.671501 81.3965 96.671501 Z M 73.681602 58.146095 L 55.126999 72.208603 C 54.248001 71.622704 53.173801 71.329704 52.0508 71.329704 C 50.537102 71.329704 49.2188 71.866798 48.193401 72.794601 L 31.2012 64.200798 C 31.054701 60.636398 28.320299 58.390297 25.292999 58.390297 C 22.0215 58.390297 19.3848 61.027 19.3848 64.347298 C 19.3848 67.618797 22.0215 70.255501 25.292999 70.255501 C 26.6113 70.255501 27.832001 69.816002 28.808599 69.083603 L 46.191399 77.921501 C 46.484402 80.851204 48.9258 83.195 52.0508 83.195 C 54.980499 83.195 58.007801 81.095299 57.959 76.945 L 76.660202 62.784798 C 77.490196 63.224197 78.466797 63.517197 79.492203 63.517197 C 82.8125 63.517197 85.449203 60.831696 85.449203 57.609001 C 85.449203 54.288696 82.8125 51.652 79.492203 51.652 C 76.367203 51.652 73.388702 54.093399 73.681602 58.146095 Z M 65.429703 12.345306 L 71.7285 12.345306 C 75.1465 12.345306 77.246101 14.445007 77.246101 18.009399 L 77.246101 24.552399 C 77.246101 28.116806 75.1465 30.2164 71.7285 30.2164 L 33.105499 30.2164 C 29.6875 30.2164 27.5879 28.116806 27.5879 24.552399 L 27.5879 18.009399 C 27.5879 14.445007 29.6875 12.345306 33.105499 12.345306 L 39.404301 12.345306 C 39.746101 5.509415 45.459 -0.057007 52.441399 -0.057007 C 59.375 -0.057007 65.087898 5.509415 65.429703 12.345306 Z M 46.826199 12.736008 C 46.826199 15.714493 49.316399 18.302399 52.441399 18.302399 C 55.517601 18.302399 58.007801 15.714493 58.007801 12.736008 C 58.007801 9.610977 55.517601 7.120728 52.441399 7.120728 C 49.316399 7.120728 46.826199 9.610977 46.826199 12.736008 Z"/>
    </g>
</svg>
